<svg xmlns="http://www.w3.org/2000/svg" viewBox="0 0 1200 675" role="img" aria-label="Friendly campervan at golden hour with map overlay">
  <defs>
    <linearGradient id="sky" x1="0" x2="1" y1="0" y2="1"><stop offset="0" stop-color="#172f24"/><stop offset="0.48" stop-color="#2f5b43"/><stop offset="1" stop-color="#d6a35d"/></linearGradient>
    <linearGradient id="night" x1="0" x2="0" y1="0" y2="1"><stop offset="0" stop-color="#102018"/><stop offset="1" stop-color="#08120d"/></linearGradient>
    <filter id="soft"><feGaussianBlur stdDeviation="18"/></filter>
    <filter id="shadow" x="-20%" y="-20%" width="140%" height="140%"><feDropShadow dx="0" dy="18" stdDeviation="18" flood-color="#08120d" flood-opacity=".45"/></filter>
  </defs>
  <rect width="1200" height="675" fill="url(#sky)"/>
  <circle cx="970" cy="120" r="92" fill="#ffd27c" opacity=".78"/>
  <circle cx="970" cy="120" r="150" fill="#ffd27c" opacity=".18" filter="url(#soft)"/>
  <path d="M0 332 C145 238 252 296 360 238 C512 156 638 270 760 216 C942 136 1028 238 1200 176 L1200 675 L0 675Z" fill="#244f3a" opacity=".88"/>
  <path d="M0 410 C140 350 244 390 382 328 C560 250 700 374 862 310 C1015 250 1090 330 1200 296 L1200 675 L0 675Z" fill="#163524" opacity=".95"/>
  <path d="M0 520 C180 472 320 534 520 470 C700 414 840 530 1200 438 L1200 675 L0 675Z" fill="#0b1d13"/>
  
  <g filter="url(#shadow)">
    <rect x="312" y="355" width="330" height="116" rx="30" fill="#f4ead7"/>
    <path d="M378 316 h180 c58 0 108 40 124 95 h-370 c7-54 25-95 66-95z" fill="#dfe9dc"/>
    <rect x="405" y="336" width="78" height="50" rx="10" fill="#1b3d2e" opacity=".86"/>
    <rect x="500" y="336" width="100" height="50" rx="10" fill="#1b3d2e" opacity=".86"/>
    <circle cx="390" cy="472" r="34" fill="#141817"/><circle cx="390" cy="472" r="15" fill="#79907d"/>
    <circle cx="566" cy="472" r="34" fill="#141817"/><circle cx="566" cy="472" r="15" fill="#79907d"/>
    <rect x="650" y="392" width="250" height="150" rx="24" fill="#102018" stroke="#d6a35d" stroke-width="4"/>
    <path d="M690 492 C730 430 785 458 820 400 C850 356 880 378 862 426 C842 480 765 470 722 522" fill="none" stroke="#6f8f75" stroke-width="10" stroke-linecap="round"/>
    <circle cx="690" cy="492" r="12" fill="#d6a35d"/><circle cx="862" cy="426" r="12" fill="#d6a35d"/>
  </g>
  <g opacity=".9"><circle cx="190" cy="194" r="4" fill="#f4ead7"/><circle cx="235" cy="154" r="3" fill="#f4ead7"/><circle cx="1020" cy="250" r="3" fill="#f4ead7"/></g>
</svg>