<svg xmlns="http://www.w3.org/2000/svg" viewBox="0 0 1200 675" role="img" aria-label="Campervan park-up under a warm streetlamp">
  <defs>
    <linearGradient id="sky" x1="0" x2="1" y1="0" y2="1"><stop offset="0" stop-color="#172f24"/><stop offset="0.48" stop-color="#2f5b43"/><stop offset="1" stop-color="#d6a35d"/></linearGradient>
    <linearGradient id="night" x1="0" x2="0" y1="0" y2="1"><stop offset="0" stop-color="#102018"/><stop offset="1" stop-color="#08120d"/></linearGradient>
    <filter id="soft"><feGaussianBlur stdDeviation="18"/></filter>
    <filter id="shadow" x="-20%" y="-20%" width="140%" height="140%"><feDropShadow dx="0" dy="18" stdDeviation="18" flood-color="#08120d" flood-opacity=".45"/></filter>
  </defs>
  <rect width="1200" height="675" fill="url(#sky)"/>
  <circle cx="970" cy="120" r="92" fill="#ffd27c" opacity=".78"/>
  <circle cx="970" cy="120" r="150" fill="#ffd27c" opacity=".18" filter="url(#soft)"/>
  <path d="M0 332 C145 238 252 296 360 238 C512 156 638 270 760 216 C942 136 1028 238 1200 176 L1200 675 L0 675Z" fill="#244f3a" opacity=".88"/>
  <path d="M0 410 C140 350 244 390 382 328 C560 250 700 374 862 310 C1015 250 1090 330 1200 296 L1200 675 L0 675Z" fill="#163524" opacity=".95"/>
  <path d="M0 520 C180 472 320 534 520 470 C700 414 840 530 1200 438 L1200 675 L0 675Z" fill="#0b1d13"/>
  
  <g filter="url(#shadow)">
    <rect x="745" y="205" width="12" height="305" rx="6" fill="#6f8f75"/>
    <path d="M700 205 h104 l-20 -34 h-64Z" fill="#d6a35d"/>
    <ellipse cx="752" cy="300" rx="190" ry="138" fill="#ffd27c" opacity=".18"/>
    <rect x="330" y="405" width="260" height="92" rx="20" fill="#f4ead7"/>
    <path d="M380 360 h136 c46 0 84 30 98 72 h-284 c6-44 20-72 50-72z" fill="#dfe9dc"/>
    <rect x="410" y="376" width="58" height="34" rx="7" fill="#183828"/><rect x="482" y="376" width="76" height="34" rx="7" fill="#183828"/>
    <circle cx="392" cy="502" r="27" fill="#08120d"/><circle cx="392" cy="502" r="11" fill="#79907d"/>
    <circle cx="538" cy="502" r="27" fill="#08120d"/><circle cx="538" cy="502" r="11" fill="#79907d"/>
    <path d="M234 330 c0-62 96-62 96 0 c0 45-48 94-48 94 s-48-49-48-94z" fill="#d6a35d"/><circle cx="282" cy="330" r="18" fill="#102018"/>
    <rect x="180" y="456" width="160" height="96" rx="16" fill="#f4ead7" opacity=".92"/><path d="M205 486 h105 M205 516 h82" stroke="#6f8f75" stroke-width="8" stroke-linecap="round"/>
  </g>
  <g opacity=".9"><circle cx="180" cy="130" r="3" fill="#f4ead7"/><circle cx="250" cy="190" r="2.5" fill="#f4ead7"/><circle cx="970" cy="158" r="3" fill="#f4ead7"/><circle cx="1040" cy="230" r="2.5" fill="#f4ead7"/></g>
</svg>