<svg xmlns="http://www.w3.org/2000/svg" viewBox="0 0 1600 900" preserveAspectRatio="xMidYMid slice">
  <defs>
    <linearGradient id="sky" x1="0" y1="0" x2="0" y2="1">
      <stop offset="0" stop-color="#244f3a"/>
      <stop offset="0.42" stop-color="#6f8f75"/>
      <stop offset="1" stop-color="#16251c"/>
    </linearGradient>
    <radialGradient id="sun" cx="72%" cy="22%" r="32%">
      <stop offset="0" stop-color="#f0c987" stop-opacity="0.85"/>
      <stop offset="0.45" stop-color="#d29a55" stop-opacity="0.28"/>
      <stop offset="1" stop-color="#d29a55" stop-opacity="0"/>
    </radialGradient>
    <linearGradient id="mist" x1="0" y1="0" x2="1" y2="0">
      <stop offset="0" stop-color="#f4ead7" stop-opacity="0"/>
      <stop offset="0.5" stop-color="#f4ead7" stop-opacity="0.18"/>
      <stop offset="1" stop-color="#f4ead7" stop-opacity="0"/>
    </linearGradient>
  </defs>
  <rect width="1600" height="900" fill="url(#sky)"/>
  <rect width="1600" height="900" fill="url(#sun)"/>
  <path d="M0 540 C170 450 270 490 430 390 C570 302 690 420 820 340 C970 248 1130 360 1280 300 C1410 250 1500 300 1600 260 L1600 900 L0 900 Z" fill="#314c35" opacity="0.62"/>
  <path d="M0 610 C130 540 250 560 395 490 C520 430 650 520 805 455 C980 382 1120 462 1282 410 C1430 360 1510 410 1600 388 L1600 900 L0 900 Z" fill="#203b2b" opacity="0.78"/>
  <path d="M0 665 C140 590 255 632 392 570 C560 495 685 592 842 522 C1010 445 1150 555 1325 492 C1462 442 1530 482 1600 470 L1600 900 L0 900 Z" fill="#12271d"/>
  <g opacity="0.9">
    <path d="M55 710 l42-125 l42 125 Z" fill="#0f2118"/><path d="M118 720 l55-165 l55 165 Z" fill="#10271b"/><path d="M205 718 l42-125 l42 125 Z" fill="#0d1d15"/>
    <path d="M1290 720 l54-158 l54 158 Z" fill="#0f2118"/><path d="M1372 730 l72-210 l72 210 Z" fill="#10271b"/><path d="M1490 720 l50-145 l50 145 Z" fill="#0d1d15"/>
  </g>
  <g transform="translate(635 610)" fill="none" stroke-linecap="round" stroke-linejoin="round">
    <path d="M30 74 h250 c22 0 40 18 40 40 v46 h-330 v-56 c0-17 13-30 30-30Z" fill="#f1eadc" stroke="#203b2b" stroke-width="8"/>
    <path d="M98 74 h88 l48 86 h-136Z" fill="#e0cda8" stroke="#203b2b" stroke-width="8"/>
    <rect x="44" y="95" width="54" height="40" rx="6" fill="#6f8f75" stroke="#203b2b" stroke-width="6"/>
    <rect x="200" y="96" width="58" height="38" rx="6" fill="#d29a55" stroke="#203b2b" stroke-width="6"/>
    <circle cx="68" cy="166" r="24" fill="#18281f" stroke="#f1eadc" stroke-width="8"/>
    <circle cx="258" cy="166" r="24" fill="#18281f" stroke="#f1eadc" stroke-width="8"/>
    <path d="M-70 168 C70 150 190 185 390 158" stroke="#d29a55" stroke-width="7" opacity="0.7"/>
  </g>
  <rect y="585" width="1600" height="86" fill="url(#mist)" opacity="0.78"/>
</svg>
