<svg xmlns="http://www.w3.org/2000/svg" viewBox="0 0 512 512" role="img" aria-label="MARKET">
<defs>
  <linearGradient id="sky" x1="0" y1="0" x2="1" y2="1"><stop offset="0" stop-color="#12100c"/><stop offset="0.55" stop-color="#251809"/><stop offset="1" stop-color="#08191a"/></linearGradient>
  <linearGradient id="gold" x1="0" y1="0" x2="1" y2="1"><stop offset="0" stop-color="#ffe7a2"/><stop offset="0.48" stop-color="#d6a84f"/><stop offset="1" stop-color="#765118"/></linearGradient>
  <linearGradient id="wood" x1="0" y1="0" x2="0" y2="1"><stop offset="0" stop-color="#5a3f19"/><stop offset="1" stop-color="#21170b"/></linearGradient>
  <radialGradient id="glow" cx="50%" cy="50%" r="50%"><stop offset="0" stop-color="#ffe9a8"/><stop offset="0.45" stop-color="#d6a84f"/><stop offset="1" stop-color="#d6a84f00"/></radialGradient>
  <filter id="soft"><feGaussianBlur stdDeviation="3"/></filter>
</defs>
<rect width="512" height="512" rx="54" fill="url(#sky)"/>
<circle cx="392" cy="84" r="58" fill="url(#glow)" opacity=".55" filter="url(#soft)"/>
<path d="M40 378 Q116 326 194 367 Q271 310 351 365 Q427 323 474 374 L474 458 L40 458 Z" fill="#090807" opacity=".72"/>
<ellipse cx="256" cy="438" rx="170" ry="30" fill="#000" opacity=".35"/>
<g stroke="#11100d" stroke-width="8" stroke-linejoin="round" stroke-linecap="round">
  <rect x="116" y="234" width="280" height="144" rx="12" fill="#2c2012"/>
  <path d="M100 238 H412 L374 156 H138 Z" fill="#5a3f19"/>
  <path d="M134 166 H378" stroke="#d6a84f"/><path d="M154 170 L138 230 M214 170 L206 230 M274 170 L282 230 M354 170 L374 230" stroke="#11100d"/>
  <circle cx="184" cy="306" r="24" fill="url(#gold)"/><circle cx="256" cy="300" r="28" fill="#587a38"/><circle cx="326" cy="306" r="24" fill="#b48ad6"/>
 </g>
<rect x="76" y="424" width="360" height="42" rx="21" fill="#0f0d0a" stroke="#d6a84f" stroke-width="3" opacity=".94"/>
<text x="256" y="452" text-anchor="middle" font-family="Rajdhani, Arial, sans-serif" font-size="25" font-weight="900" fill="#f4ead4" letter-spacing="3">MARKET</text>
</svg>