<svg xmlns="http://www.w3.org/2000/svg" viewBox="0 0 512 512" role="img" aria-label="Starling Burbz art">
  <defs>
    <linearGradient id="bg" x1="0" y1="0" x2="1" y2="1"><stop offset="0" stop-color="#0b0d1a"/><stop offset="1" stop-color="#222b42"/></linearGradient>
    <filter id="shadow"><feDropShadow dx="0" dy="10" stdDeviation="8" flood-color="#000" flood-opacity=".45"/></filter>
  </defs>
  <rect width="512" height="512" rx="34" fill="url(#bg)"/>
  <circle cx="116" cy="116" r="82" fill="#203044" stroke="#4cc9f0" stroke-width="3" opacity=".72"/>
  <path d="M38 386 C160 366 300 372 474 342" stroke="#8b5c2d" stroke-width="16" stroke-linecap="round" fill="none"/>
  <path d="M278 360 C292 340 308 324 332 312" stroke="#8b5c2d" stroke-width="9" stroke-linecap="round" fill="none"/>
  <g filter="url(#shadow)">
    <path d="M186 330 L92 412 L226 382 Z" fill="#0d0e14" stroke="#f5f7ff" stroke-width="3"/>
    <path d="M320 330 L430 394 L306 374 Z" fill="#0d0e14" stroke="#f5f7ff" stroke-width="3"/>
    <ellipse cx="260" cy="258" rx="112" ry="108" fill="#14151d" stroke="#f5f7ff" stroke-width="4"/>
    <ellipse cx="278" cy="158" rx="66" ry="62" fill="#14151d" stroke="#f5f7ff" stroke-width="4"/>
    <ellipse cx="238" cy="268" rx="62" ry="82" fill="#7f4fd8" opacity=".92" stroke="#121626" stroke-width="3"/>
    <path d="M220 180 L328 165 L286 238 Z" fill="#40b8ac"/>
    <circle cx="300" cy="140" r="12" fill="#fff"/><circle cx="305" cy="140" r="6" fill="#050505"/>
    <path d="M338 154 L410 176 L338 192 Z" fill="#f4c542" stroke="#101010" stroke-width="3"/>
    <path d="M232 348 L226 388" stroke="#f2b35d" stroke-width="6" stroke-linecap="round"/>
    <path d="M292 348 L292 386" stroke="#f2b35d" stroke-width="6" stroke-linecap="round"/>
  </g>
  <rect x="34" y="424" width="444" height="68" rx="18" fill="#0a0c18" stroke="#4cc9f0" stroke-width="2" opacity=".96"/>
  <text x="256" y="456" font-family="Rajdhani,Arial,sans-serif" font-size="27" font-weight="800" text-anchor="middle" fill="#f4f7ff">STARLING</text>
  <text x="256" y="480" font-family="Rajdhani,Arial,sans-serif" font-size="17" font-weight="700" text-anchor="middle" fill="#4cc9f0">starling</text>
</svg>